<svg width="264" height="100" viewBox="0 0 264 100" fill="none" xmlns="http://www.w3.org/2000/svg">
<path d="M214 0L257.301 75H170.699L214 0Z" fill="url(#paint0_linear_19_2163)"/>
<path d="M20.7273 74H3.52273V27.4545H20.7045C25.447 27.4545 29.5303 28.3864 32.9545 30.25C36.3939 32.0985 39.0455 34.7651 40.9091 38.25C42.7727 41.7197 43.7045 45.8712 43.7045 50.7045C43.7045 55.553 42.7727 59.7197 40.9091 63.2045C39.0606 66.6894 36.4167 69.3636 32.9773 71.2273C29.5379 73.0758 25.4545 74 20.7273 74ZM14.7727 64.4091H20.2955C22.9015 64.4091 25.1061 63.9697 26.9091 63.0909C28.7273 62.197 30.0985 60.75 31.0227 58.75C31.9621 56.7348 32.4318 54.053 32.4318 50.7045C32.4318 47.3561 31.9621 44.6894 31.0227 42.7045C30.0833 40.7045 28.697 39.2652 26.8636 38.3864C25.0455 37.4924 22.803 37.0455 20.1364 37.0455H14.7727V64.4091ZM66.5909 74.6591C62.9394 74.6591 59.7879 73.9394 57.1364 72.5C54.5 71.0455 52.4697 68.9773 51.0455 66.2955C49.6364 63.5985 48.9318 60.3939 48.9318 56.6818C48.9318 53.0758 49.6439 49.9242 51.0682 47.2273C52.4924 44.5152 54.5 42.4091 57.0909 40.9091C59.6818 39.3939 62.7348 38.6364 66.25 38.6364C68.7348 38.6364 71.0076 39.0227 73.0682 39.7955C75.1288 40.5682 76.9091 41.7121 78.4091 43.2273C79.9091 44.7424 81.0758 46.6136 81.9091 48.8409C82.7424 51.053 83.1591 53.5909 83.1591 56.4545V59.2273H52.8182V52.7727H72.8182C72.803 51.5909 72.5227 50.5379 71.9773 49.6136C71.4318 48.6894 70.6818 47.9697 69.7273 47.4545C68.7879 46.9242 67.7045 46.6591 66.4773 46.6591C65.2348 46.6591 64.1212 46.9394 63.1364 47.5C62.1515 48.0455 61.3712 48.7955 60.7955 49.75C60.2197 50.6894 59.9167 51.7576 59.8864 52.9545V59.5227C59.8864 60.947 60.1667 62.197 60.7273 63.2727C61.2879 64.3333 62.0833 65.1591 63.1136 65.75C64.1439 66.3409 65.3712 66.6364 66.7955 66.6364C67.7803 66.6364 68.6742 66.5 69.4773 66.2273C70.2803 65.9545 70.9697 65.553 71.5455 65.0227C72.1212 64.4924 72.553 63.8409 72.8409 63.0682L83.0455 63.3636C82.6212 65.6515 81.6894 67.6439 80.25 69.3409C78.8258 71.0227 76.9545 72.3333 74.6364 73.2727C72.3182 74.197 69.6364 74.6591 66.5909 74.6591ZM121.761 39.0909L109.784 74H97.0568L85.1023 39.0909H96.8068L103.239 63.1364H103.602L110.057 39.0909H121.761ZM154.182 27.4545H165.409V57.4773C165.409 60.947 164.583 63.9697 162.932 66.5455C161.28 69.1061 158.977 71.0909 156.023 72.5C153.068 73.8939 149.636 74.5909 145.727 74.5909C141.773 74.5909 138.318 73.8939 135.364 72.5C132.409 71.0909 130.114 69.1061 128.477 66.5455C126.841 63.9697 126.023 60.947 126.023 57.4773V27.4545H137.273V56.5C137.273 58.1061 137.621 59.5379 138.318 60.7955C139.03 62.053 140.023 63.0379 141.295 63.75C142.568 64.4621 144.045 64.8182 145.727 64.8182C147.409 64.8182 148.879 64.4621 150.136 63.75C151.409 63.0379 152.402 62.053 153.114 60.7955C153.826 59.5379 154.182 58.1061 154.182 56.5V27.4545ZM172.46 87.0909V39.0909H183.46V45.0682H183.801C184.256 44.0076 184.9 42.9848 185.733 42C186.581 41.0152 187.657 40.2121 188.96 39.5909C190.278 38.9545 191.854 38.6364 193.688 38.6364C196.112 38.6364 198.377 39.2727 200.483 40.5455C202.604 41.8182 204.316 43.7803 205.619 46.4318C206.922 49.0833 207.574 52.4621 207.574 56.5682C207.574 60.5227 206.945 63.8333 205.688 66.5C204.445 69.1667 202.763 71.1667 200.642 72.5C198.536 73.8333 196.195 74.5 193.619 74.5C191.862 74.5 190.339 74.2121 189.051 73.6364C187.763 73.0606 186.68 72.303 185.801 71.3636C184.938 70.4242 184.271 69.4167 183.801 68.3409H183.574V87.0909H172.46ZM183.347 56.5455C183.347 58.4242 183.597 60.0606 184.097 61.4545C184.612 62.8485 185.347 63.9318 186.301 64.7045C187.271 65.4621 188.43 65.8409 189.778 65.8409C191.142 65.8409 192.301 65.4621 193.256 64.7045C194.21 63.9318 194.93 62.8485 195.415 61.4545C195.915 60.0606 196.165 58.4242 196.165 56.5455C196.165 54.6667 195.915 53.0379 195.415 51.6591C194.93 50.2803 194.21 49.2121 193.256 48.4545C192.316 47.697 191.157 47.3182 189.778 47.3182C188.415 47.3182 187.256 47.6894 186.301 48.4318C185.347 49.1742 184.612 50.2348 184.097 51.6136C183.597 52.9924 183.347 54.6364 183.347 56.5455Z" fill="black"/>
<defs>
<linearGradient id="paint0_linear_19_2163" x1="164" y1="75.5" x2="242" y2="15" gradientUnits="userSpaceOnUse">
<stop stop-color="#00FF87"/>
<stop offset="0.0001" stop-color="#00FF87"/>
<stop offset="1" stop-color="#60EFFF"/>
</linearGradient>
</defs>
</svg>
